
<svg width="65px" height="42px" viewBox="0 0 65 42" version="1.1" xmlns="http://www.w3.org/2000/svg" xmlns:xlink="http://www.w3.org/1999/xlink">
    <g id="Page-1" stroke="none" stroke-width="1" fill="none" fill-rule="evenodd">
        <g id="Desktop-HD-Copy-22" transform="translate(-599.000000, -684.000000)" fill="#000000" fill-rule="nonzero">
            <g id="icon-training-copy" transform="translate(599.000000, 684.000000)">
                <path d="M63.9811363,11.5305742 L36.0888696,0.678263619 C33.7799958,-0.226087873 31.2233458,-0.226087873 28.914472,0.678263619 L1.01886371,11.5305742 C0.405144159,11.7700585 0,12.3696376 0,13.0384062 C0,13.7071748 0.405144159,14.3067538 1.01886371,14.5462382 L13.5999568,19.4454172 L13.5999568,30.9640977 C13.5967382,31.5429404 13.9008084,32.0784903 14.3952557,32.3648345 C25.7326416,38.4199666 39.2707,38.4199666 50.6080859,32.3648345 C51.1028051,32.0792081 51.4060812,31.5428029 51.4000432,30.9640977 L51.4000432,19.4454172 L56.9571103,17.2899144 L56.9571103,30.6955098 C55.1070784,31.3760241 53.873128,33.1613891 53.8694795,35.1629084 L53.8694795,40.3850728 C53.8694795,41.2769725 54.5801183,42 55.4567356,42 L61.6553884,42 C62.5320057,42 63.2426445,41.2769725 63.2426445,40.3850728 L63.2426445,35.1629084 C63.2354439,33.1552527 61.9908765,31.3680656 60.1316225,30.6955098 L60.1316225,16.0421707 L63.9811363,14.5462382 C64.5948558,14.3067538 65,13.7071748 65,13.0384062 C65,12.3696376 64.5948558,11.7700585 63.9811363,11.5305742 Z M60.0681323,38.7803452 L57.0306254,38.7803452 L57.0306254,35.1629084 C57.0949474,34.3580596 57.75571,33.7382232 58.5493788,33.7382232 C59.3430476,33.7382232 60.0038102,34.3580596 60.0681323,35.1629084 L60.0681323,38.7803452 Z M30.0472716,3.69392761 C31.6276487,3.07857212 33.3756929,3.07857212 34.95607,3.69392761 L58.9553822,13.0367063 L34.9360204,22.3828847 C33.3544744,22.9981462 31.6054265,22.9981462 30.0238805,22.3828847 L6.04461777,13.0367063 L30.0472716,3.69392761 Z M48.225531,29.9849419 C43.3081124,32.3591551 37.9427105,33.6189102 32.5,33.6771754 C27.0640539,33.6160724 21.705776,32.3563839 16.7945186,29.9849419 L16.7945186,20.6727619 L28.93118,25.3985487 C31.2400537,26.3029002 33.7967038,26.3029002 36.1055775,25.3985487 L48.2422389,20.6727619 L48.225531,29.9849419 Z" id="Shape"></path>
            </g>
        </g>
    </g>
</svg>
