
<svg width="45px" height="58px" viewBox="0 0 45 58" version="1.1" xmlns="http://www.w3.org/2000/svg" xmlns:xlink="http://www.w3.org/1999/xlink">
    <g id="Page-1" stroke="none" stroke-width="1" fill="none" fill-rule="evenodd">
        <g id="Desktop-HD-Copy-22" transform="translate(-848.000000, -672.000000)" fill="#000000" fill-rule="nonzero">
            <g id="noun-money-bag-526464" transform="translate(848.000000, 673.000000)">
                <path d="M10.4392756,9.7663748 L16.9509397,16 L18.4279031,14.4071238 L12.117291,8.38104971 C12.049962,8.17308212 12.117291,7.96556474 12.18462,7.75759715 C12.3188547,7.48061092 12.5204085,7.27264333 12.7888779,7.13414459 L15.7428046,5.88726197 L17.8908869,10.0430121 L19.7704998,9.00407457 L17.1523507,4.08644066 L17.0850217,4.15590839 L16.8838824,3.60192468 C16.9512114,2.90945348 17.555034,2.35504206 18.2266656,2.35504206 L27.5580765,2.35504206 C28.2965581,2.35504206 28.8334424,2.90902577 28.9008597,3.60192468 L28.766625,4.0868785 L26.2157841,8.93551629 L28.095397,9.97445382 L30.2434793,5.88769981 L33.1300978,7.06513608 C33.3985563,7.20363482 33.600121,7.41159116 33.7343557,7.68858865 C33.8016847,7.89655624 33.8685904,8.10407362 33.8016847,8.31204121 L27.4910726,14.3381153 L28.9680359,15.9309915 L35.4797001,9.69736629 C35.6139348,9.55886755 35.6812649,9.42038006 35.7481586,9.28188132 C36.0839471,8.45091138 36.0839471,7.55045008 35.7481586,6.71900741 C35.4123701,5.88803747 34.8081121,5.26457365 34.0027258,4.91812983 L31.1829792,3.74069355 L31.1829792,3.60219481 C31.1829792,1.59331586 29.6391439,0.00043963924 27.6921137,0.00043963924 L18.2933946,0 C16.3463644,0 14.8025291,1.59287622 14.8025291,3.60175517 L14.8025291,3.74025391 L11.9827825,4.91769019 C10.3715299,5.61016138 9.56623083,7.54956022 10.2373497,9.21188279 C10.2377759,9.48886901 10.3046787,9.62736776 10.4389145,9.76630546 L10.4392756,9.7663748 Z" id="Path" stroke="#000000" stroke-width="0.5"></path>
                <path d="M12.3761313,57 L32.6248724,57 C32.9308651,57 38.9870868,56.9322445 42.5351148,52.5410401 C44.5540243,49.9740396 45.3493011,46.5961994 44.8596094,42.4072999 C43.146782,27.4771341 29.8109843,15.4517638 27.7303414,14.5065525 C26.2620617,13.8311492 18.7376497,13.8311492 17.2694693,14.5065525 C15.1896217,15.5198826 1.85302876,27.4771341 0.140201369,42.4072999 C-0.349082736,46.5956505 0.446194055,50.0413352 2.46469602,52.5410401 C6.07445737,56.9322654 12.0697509,57 12.3757336,57 L12.3761313,57 Z M2.85365577,42.3453882 C4.38319411,28.5896734 17.1491035,17.8048488 18.2083088,17.2885373 C18.6788235,17.0946371 20.6201996,16.9655172 22.5026789,16.9655172 C24.4441411,16.9655172 26.3265248,17.0946476 26.797049,17.2885373 C27.7970803,17.8050482 40.5628941,28.5896734 42.1517021,42.3453882 C42.5635876,45.7682608 41.9164495,48.4803656 40.3279188,50.4176882 C37.4455038,53.9697437 32.2683033,54.0340728 32.2097028,54.0340728 L12.7377237,54.0344828 C12.6787228,54.0344828 7.50192279,53.969714 4.61950778,50.4180982 C3.03098662,48.4803558 2.44278353,45.7682511 2.85432494,42.3453784 L2.85365577,42.3453882 Z" id="Shape"></path>
                <path d="M21.7965007,45 C23.2880831,45 24.6441572,44.6842018 25.9996805,44.1160276 L25.0507591,42.2856762 C24.0338413,42.7276316 22.9489489,42.9800588 21.7964677,42.9800588 C18.8133029,42.9800588 16.2372138,41.2755671 15.0167581,38.8137629 L23.9658117,38.8137629 L23.9658117,36.7939551 L14.2709119,36.7939551 C14.2029165,36.3519997 14.1353485,35.9100443 14.1353485,35.4684786 C14.1353485,35.0265232 14.2033439,34.5845678 14.2709119,34.1430022 L23.8978372,34.1430022 L23.8978372,32.1231944 L14.9491142,32.1231944 C16.2371036,29.6613902 18.8136335,27.9568985 21.7288237,27.9568985 C22.881305,27.9568985 23.9662524,28.2093257 25.050649,28.7141905 L26,26.9468202 C24.6439259,26.3157469 23.2204281,26 21.7287356,26 C17.5255558,26 14.0001377,28.5879717 12.5760891,32.1862063 L10,32.1862063 L10,34.2060141 L12.0338358,34.2060141 C11.9658404,34.6479696 11.8982724,35.089925 11.8982724,35.5314906 C11.8982724,35.973446 11.9662678,36.4154014 12.0338358,36.856967 L10,36.856967 L10,38.8767748 L12.5760891,38.8767748 C14.0676715,42.4753172 17.5930896,45 21.7962694,45 L21.7965007,45 Z" id="Path" stroke="#000000" stroke-width="0.5"></path>
            </g>
        </g>
    </g>
</svg>
