
<svg width="51px" height="57px" viewBox="0 0 51 57" version="1.1" xmlns="http://www.w3.org/2000/svg" xmlns:xlink="http://www.w3.org/1999/xlink">
    <g id="Page-1" stroke="none" stroke-width="1" fill="none" fill-rule="evenodd">
        <g id="Desktop-HD-Copy-22" transform="translate(-1079.000000, -672.000000)" fill="#000000" fill-rule="nonzero">
            <g id="noun-medal-1485530" transform="translate(1079.000000, 672.000000)">
                <path d="M25.5385475,0 C31.4108044,0 36.8421577,2.35786147 40.658724,6.33695639 C44.6223935,10.1683794 46.971276,15.6213415 46.971276,21.5155878 C46.971276,25.936578 45.6500866,30.0628356 43.4479015,33.452567 L50.7880452,46.4212125 C51.2283199,47.1579831 50.9346715,47.8947741 50.3477705,48.3370768 C50.0541221,48.48427 49.9074958,48.48427 49.6138373,48.48427 L40.8059083,47.8946926 L36.9892406,55.8527806 C36.5489659,56.442358 35.8146472,56.7371416 35.0807545,56.442358 C34.7871062,56.2951648 34.6404798,56.0003812 34.4934477,55.8527806 L27.153304,43.031807 C26.7130293,43.1790002 26.1257123,43.1790002 25.5384156,43.1790002 C24.9511189,43.1790002 24.5108239,43.1790002 24.0705289,43.031807 L16.4367876,56.2947778 C16.2901612,56.5895614 16.1431392,56.7367546 15.8494807,56.8843552 C15.2621738,57.1791388 14.381594,56.8843552 14.0879964,56.2947778 L10.1243269,48.3366898 L1.46299386,48.9262672 C1.16934551,48.9262672 0.875687006,48.9262672 0.729060656,48.779074 C-0.00487255125,48.3370971 -0.151894558,47.5999395 0.141753799,46.8632097 L7.77549511,33.7468923 C5.42671406,30.2098964 3.95882736,26.0836389 3.95882736,21.5155878 C3.95882736,15.6206286 6.45430577,10.1682776 10.2713793,6.33695639 C14.2350488,2.35796332 19.5200091,0 25.5386591,0 L25.5385475,0 Z M21.1347453,42.7372576 C17.0242161,41.8528966 13.2071426,39.7898289 10.2712677,36.8422984 C9.97761938,36.5475148 9.83099303,36.252721 9.53733452,35.9579374 L3.81207927,46.1263168 L10.8585239,45.68434 C11.4458307,45.5371468 12.0331173,45.9791236 12.1797132,46.4211106 L15.40949,52.758067 L21.1347453,42.7369521 L21.1347453,42.7372576 Z M41.6864172,35.810734 L40.6588255,36.8422984 C37.8697494,39.6421571 34.1996776,41.7052858 30.088702,42.7372576 L35.6672599,52.3164772 L38.7500351,45.9795208 C39.0436834,45.3899434 39.4839683,45.0951598 40.0712244,45.0951598 L47.2646707,45.5371366 L41.6864172,35.810734 Z M26.7123293,8.54745152 L29.5014053,16.9474349 L38.1627383,16.9474349 C38.8966716,16.9474349 39.4839277,17.5370123 39.4839277,18.2737319 C39.4839277,18.7157088 39.3373013,19.1580929 39.043653,19.3052963 L31.8502067,24.4631183 L34.6392827,32.8631016 C34.9329311,33.5998722 34.4926564,34.3366632 33.7583275,34.4842332 C33.3180528,34.6314265 32.8773723,34.6314265 32.4371382,34.33704 L25.5372895,29.1792181 L18.4908449,34.33704 C17.903538,34.7790169 17.0229582,34.6318236 16.5823588,34.0422564 C16.2887105,33.7474728 16.2887105,33.1578954 16.4357325,32.863122 L19.0782126,24.4631387 L12.031768,19.3053167 C11.4444611,18.8633399 11.2978348,18.1261823 11.7381196,17.3894524 C12.031768,17.0946688 12.4720529,16.799875 12.9127131,16.9474756 L21.5740461,16.9474756 L24.2165262,8.54749226 C24.5101746,7.81072166 25.2441179,7.51592787 25.9780106,7.66313126 C26.2716589,7.81032447 26.7119438,8.10510807 26.7119438,8.54749226 L26.7123293,8.54745152 Z M27.152604,18.715831 L25.5377156,13.410439 L23.7762312,18.715831 C23.6296049,19.1578078 23.042298,19.600192 22.4550419,19.600192 L16.876484,19.600192 L21.4274502,22.8424552 C21.8677249,23.284432 22.1613834,23.8740196 22.014757,24.3160168 L20.2532727,29.7685714 L24.6572372,26.3791455 C25.0975119,26.0843619 25.8318306,26.0843619 26.2721256,26.3791455 L30.8230918,29.7685714 L29.0616074,24.4631794 C28.9149811,23.873602 29.0616074,23.284045 29.5018821,22.8420478 L34.0528483,19.5997846 L28.6212921,19.5997846 C28.0339853,19.5997846 27.4466987,19.305001 27.1534054,18.7154236 L27.152604,18.715831 Z M38.7504206,8.25251515 C35.3740478,4.86308929 30.6763843,2.65239047 25.5385272,2.65239047 C20.2535669,2.65239047 15.5560048,4.86308929 12.1795306,8.25251515 C8.80305638,11.641941 6.74797442,16.3577658 6.74797442,21.5154859 C6.74797442,26.8208779 8.80315784,31.5366009 12.1795306,34.9261286 C15.5559034,38.3156563 20.2535669,40.3786832 25.5385272,40.3786832 C30.6764857,40.3786832 35.3740478,38.3155545 38.7504206,34.9261286 C42.273795,31.5367027 44.3289785,26.8208779 44.3289785,21.5154859 C44.3289785,16.357664 42.273795,11.641941 38.7504206,8.25251515 Z" id="Shape"></path>
            </g>
        </g>
    </g>
</svg>
