
<svg width="48px" height="48px" viewBox="0 0 48 48" version="1.1" xmlns="http://www.w3.org/2000/svg" xmlns:xlink="http://www.w3.org/1999/xlink">
    <g id="Page-1" stroke="none" stroke-width="1" fill="none" fill-rule="evenodd">
        <g id="Desktop-HD-Copy-22" transform="translate(-176.000000, -683.000000)" fill="#000000" fill-rule="nonzero" stroke="#000000" stroke-width="0.7">
            <g id="noun-time-3806516" transform="translate(177.000000, 684.000000)">
                <path d="M23,0 C16.8999112,0 11.0501311,2.42321262 6.73671424,6.73671424 C2.42321262,11.0498767 0,16.8999959 0,23 C0,29.1000041 2.42321262,34.9498689 6.73671424,39.2632858 C11.0498767,43.5767874 16.8999959,46 23,46 C29.1000041,46 34.9498689,43.5767874 39.2632858,39.2632858 C43.5767874,34.9501233 46,29.1000041 46,23 C45.9930444,16.9022006 43.5674602,11.0560666 39.2556544,6.7443456 C34.9437638,2.43245505 29.0974603,0.00695302102 23,0 L23,0 Z M23,44.5162931 C17.2936896,44.5162931 11.8208989,42.2494387 7.7856029,38.2144819 C3.75064609,34.1791859 1.48379165,28.7066496 1.48379165,23.0000848 C1.48379165,17.29352 3.75064609,11.8209837 7.7856029,7.78568769 C11.8208989,3.75073088 17.2934352,1.48387644 23,1.48387644 C28.7065648,1.48387644 34.1791011,3.75073088 38.2143971,7.78568769 C42.2493539,11.8209837 44.5162084,17.29352 44.5162084,23.0000848 C44.5099151,28.7043602 42.240705,34.1732504 38.2071049,38.2068505 C34.1735048,42.2404507 28.7043602,44.5096793 23.0003392,44.5162931 L23,44.5162931 Z M23,2.96775288 C17.6872136,2.96775288 12.5916667,5.07833393 8.83533949,8.83500031 C5.07858831,12.5917515 2.96809205,17.6873832 2.96809205,22.9996608 C2.96809205,28.3119385 5.0786731,33.4079941 8.83533949,37.1643213 C12.5920907,40.9210725 17.6877224,43.0315688 23,43.0315688 C28.3122776,43.0315688 33.4083333,40.9209877 37.1646605,37.1643213 C40.9214117,33.4075702 43.031908,28.3119385 43.031908,22.9996608 C43.025946,17.6884855 40.9134412,12.597263 37.1580467,8.84093582 C33.402313,5.08554133 28.3107514,2.97301004 22.9993217,2.96707453 L23,2.96775288 Z M23,41.5486251 C18.0806528,41.5486251 13.3624345,39.5943174 9.88422814,36.1158566 C6.40576739,32.6373959 4.45154452,27.919432 4.45154452,23.0000848 C4.45154452,18.0807376 6.40576739,13.3625193 9.88422814,9.88431294 C13.3626889,6.40585219 18.0806528,4.45162931 23,4.45162931 C27.9193472,4.45162931 32.6375655,6.40585219 36.1157719,9.88431294 C39.5942326,13.3627737 41.5484555,18.0807376 41.5484555,23.0000848 C41.5428247,27.9177361 39.5869404,32.6325627 36.1097516,36.1099211 C32.6322235,39.58711 27.9176513,41.5429439 22.9999152,41.5486251 L23,41.5486251 Z M22.2580618,8.16132041 L22.2580618,6.67744397 C22.2580618,6.26772449 22.5902805,5.93550575 23,5.93550575 C23.4097195,5.93550575 23.7419382,6.26772449 23.7419382,6.67744397 L23.7419382,8.16132041 C23.7419382,8.57103989 23.4097195,8.90325863 23,8.90325863 C22.5902805,8.90325863 22.2580618,8.57103989 22.2580618,8.16132041 Z M13.0317421,11.9829382 C13.1751608,12.1210574 13.2566384,12.3111801 13.2583003,12.5102485 C13.2599564,12.7093169 13.1817882,12.9004317 13.0410184,13.0411965 C12.9002452,13.1819697 12.7091304,13.2601318 12.5100705,13.2584784 C12.3110021,13.2568223 12.1208878,13.1753414 11.9827601,13.0319201 L10.9334475,11.9829467 C10.650256,11.6921323 10.6529016,11.2274246 10.940072,10.9402479 C11.2272403,10.6530796 11.691948,10.6504256 11.9827708,10.9336234 L13.0317421,11.9829382 Z M8.90308904,23.0000848 C8.90308904,23.1968299 8.82492013,23.3856298 8.68580714,23.5247411 C8.54669414,23.6638524 8.35789588,23.742023 8.16115082,23.742023 L6.67727439,23.742023 C6.2675549,23.742023 5.93533617,23.4098043 5.93533617,23.0000848 C5.93533617,22.5903653 6.2675549,22.2581466 6.67727439,22.2581466 L8.16115082,22.2581466 C8.35789588,22.2581466 8.54669584,22.3363155 8.68580714,22.4754285 C8.82491843,22.6145415 8.90308904,22.8033397 8.90308904,23.0000848 Z M13.0317421,32.9683427 C13.171184,33.107454 13.2493547,33.2959233 13.2493547,33.4926684 C13.2493547,33.6894134 13.1711866,33.8782134 13.0317421,34.0173247 L11.9827686,35.0666373 C11.8443187,35.2084026 11.6545267,35.2892188 11.4561281,35.290558 C11.2577296,35.2918665 11.0672762,35.2133664 10.9268336,35.0732596 C10.7867303,34.9328256 10.708229,34.7423721 10.7095353,34.5439651 C10.7108765,34.3455666 10.7916949,34.1557746 10.933456,34.0173247 L11.9827686,32.9683512 C12.1218799,32.8289092 12.3106799,32.7507386 12.5074249,32.7507386 C12.70417,32.7507386 12.8926392,32.8289067 13.0317505,32.9683512 L13.0317421,32.9683427 Z M23.7419382,37.838934 L23.7419382,39.3228104 C23.7419382,39.7325299 23.4097195,40.0647486 23,40.0647486 C22.5902805,40.0647486 22.2580618,39.7325299 22.2580618,39.3228104 L22.2580618,37.838934 C22.2580618,37.4292145 22.5902805,37.0969957 23,37.0969957 C23.4097195,37.0969957 23.7419382,37.4292145 23.7419382,37.838934 Z M35.0660353,34.0173162 C35.2078006,34.1557661 35.2886167,34.3455581 35.289956,34.5439567 C35.2912645,34.7423552 35.2127644,34.9328086 35.0726576,35.0732511 C34.9322235,35.2133545 34.7417701,35.2918558 34.5433631,35.2905495 C34.3449646,35.2892082 34.1551726,35.2083899 34.0167226,35.0666288 L32.9677492,34.0173162 C32.6865419,33.7261712 32.6905187,33.2634561 32.9766923,32.977246 C33.2628659,32.6910359 33.7255835,32.687093 34.0167625,32.9683029 L35.0660353,34.0173162 Z M40.0641551,23.0001696 C40.0641551,23.1969146 39.9859862,23.3857146 39.8468732,23.5248259 C39.7077602,23.6639372 39.5189619,23.7421078 39.3222169,23.7421078 L37.8383404,23.7421078 C37.4286209,23.7421078 37.0964022,23.4098891 37.0964022,23.0001696 C37.0964022,22.5904501 37.4286209,22.2582314 37.8383404,22.2582314 L39.3222169,22.2582314 C39.5189619,22.2582314 39.7077619,22.3364003 39.8468732,22.4755133 C39.9859845,22.6146263 40.0641551,22.8034245 40.0641551,23.0001696 Z M35.0660353,10.9341343 C35.3555268,11.2239566 35.3555268,11.6936247 35.0660353,11.9834469 L34.0167226,13.0324204 C33.7255776,13.3136277 33.2628625,13.3096509 32.9766524,13.0234773 C32.6904424,12.7373037 32.6864995,12.274586 32.9677093,11.9834071 L34.0166828,10.9340945 C34.3065051,10.6446029 34.7761731,10.6446029 35.0659954,10.9340945 L35.0660353,10.9341343 Z M25.0028092,23.9540902 C25.1478815,23.6569842 25.2240679,23.3307264 25.2253907,23.0001696 C25.2240658,22.5414228 25.0806491,22.0942418 24.8150098,21.720305 C24.5493705,21.3460204 24.1744246,21.0634904 23.7415312,20.9111259 L23.7415312,11.8713507 C23.7415312,11.4616312 23.4093125,11.1294125 22.999593,11.1294125 C22.5898735,11.1294125 22.2576548,11.4616312 22.2576548,11.8713507 L22.2576548,20.9111259 C21.6806643,21.1118478 21.2119882,21.5414427 20.9619339,22.0989054 C20.7118625,22.6563512 20.7029169,23.2922813 20.9367605,23.8566631 C21.1706042,24.4210449 21.6270259,24.8639184 22.1980555,25.0811579 C22.7690851,25.2981091 23.4044047,25.2702886 23.9542021,25.0039828 L27.6685568,28.7183375 C27.9597018,28.9995448 28.4224169,28.9952373 28.708627,28.7090628 C28.9948371,28.4228883 28.9991106,27.9601716 28.7179016,27.6689926 L25.0028092,23.9540902 Z M22.2576378,23.0001696 C22.2576378,22.5904501 22.5898566,22.2582314 22.999576,22.2582314 C23.4092955,22.2582314 23.7415182,22.5904501 23.7415182,23.0001696 C23.7421767,23.1998994 23.6600333,23.3913449 23.5146253,23.528472 C23.3791516,23.6665912 23.1933364,23.7437697 22.999576,23.7421078 C22.5901872,23.7414454 22.2582992,23.4095584 22.2576378,23.0001696 Z" id="Shape"></path>
            </g>
        </g>
    </g>
</svg>
