
<svg width="40px" height="57px" viewBox="0 0 40 57" version="1.1" xmlns="http://www.w3.org/2000/svg" xmlns:xlink="http://www.w3.org/1999/xlink">
    <g id="Page-1" stroke="none" stroke-width="1" fill="none" fill-rule="evenodd">
        <g id="Desktop-HD-Copy-22" transform="translate(-403.000000, -680.000000)" fill-rule="nonzero">
            <g id="noun-map-1278723" transform="translate(403.000000, 680.000000)">
                <path d="M3.28944729,31.3679447 L19.9923362,57 L36.6952252,31.3679447 C39.359583,27.2828897 40.4690121,22.3588175 39.8182249,17.5094532 C39.1679488,12.6599658 36.8012154,8.21331004 33.1567828,4.99373386 C29.5128369,1.77452691 24.8383157,0 19.9998809,0 C15.1613244,0 10.4868032,1.77452691 6.842979,4.99373386 C3.19903314,8.21343312 0.832202376,12.6600889 0.181536871,17.5094532 C-0.468739233,22.3584483 0.640714208,27.2825204 3.30502335,31.3679447 L3.28944729,31.3679447 Z M7.6639865,7.78014604 L7.6644648,7.78014604 C11.7542195,3.62263992 17.6465129,1.79589789 23.3607567,2.91329831 C29.0750004,4.03067416 33.8527077,7.94430339 36.0875129,13.3382732 C38.3223181,18.73212 37.7176349,24.8907239 34.4769837,29.7441786 L19.9599342,51.8181818 L5.44288478,29.7441786 C3.24444877,26.3833763 2.26529797,22.3660674 2.66988955,18.3669437 C3.07456685,14.3673284 4.83820161,10.6293082 7.66470971,7.7807604 L7.6639865,7.78014604 Z" id="Shape" fill="#000000"></path>
                <path d="M20,28 C22.6519702,28 25.1958976,26.946142 27.0710067,25.0710797 C28.9466142,23.1955189 30,20.6521533 30,17.9997508 C30,15.3478467 28.9466017,12.8044811 27.0710067,10.9289203 C25.1958976,9.05335959 22.6519702,8 20,8 C17.3480298,8 14.8041024,9.05337205 12.9289933,10.9289203 C11.0533858,12.8044811 10,15.3478467 10,17.9997508 C10.0034075,20.6511564 11.0582708,23.1921543 12.9328565,25.0667182 C14.807467,26.941282 17.3490267,27.996137 20,28 L20,28 Z" id="Shape" stroke="#000000" stroke-width="3" fill="#FFFFFF"></path>
            </g>
        </g>
    </g>
</svg>
