<svg xmlns="http://www.w3.org/2000/svg" width="150" height="150" viewBox="0 0 150 150">
  <g id="Groupe_124" data-name="Groupe 124" transform="translate(-6351.599 -7316.796)">
    <path id="Tracé_4" data-name="Tracé 4" d="M6358.173,7349.207c2.191.033,15.372.086,29.312.15s31.545.14,39.167.172c7.6.032,14.282.064,14.848.054h1.026l-27.334,27.423c-15.029,15.08-35.49,35.671-45.464,45.764l-18.13,18.318,12.86,12.86,12.87,12.848,45.827-45.871,45.828-45.871.171,44.659.182,44.648,16.131-16.12L6501.6,7432.1l-.021-30.159c-.022-16.6-.043-42.536-.064-57.658l-.033-27.488-57.554.064-57.554.064-16.1,16.13-16.077,16.13Z" transform="translate(0)"/>
  </g>
</svg>
